<?xml version="1.0" encoding="UTF-8" standalone="no"?>
<!-- Created with Inkscape (http://www.inkscape.org/) -->

<svg
   xmlns:dc="http://purl.org/dc/elements/1.1/"
   xmlns:cc="http://creativecommons.org/ns#"
   xmlns:rdf="http://www.w3.org/1999/02/22-rdf-syntax-ns#"
   xmlns:svg="http://www.w3.org/2000/svg"
   xmlns="http://www.w3.org/2000/svg"
   xmlns:sodipodi="http://sodipodi.sourceforge.net/DTD/sodipodi-0.dtd"
   xmlns:inkscape="http://www.inkscape.org/namespaces/inkscape"
   width="150"
   height="150"
   id="svg4447"
   version="1.1"
   inkscape:version="0.48.3.1 r9886"
   sodipodi:docname="pomodoro_plain.svg">
  <defs
     id="defs4449" />
  <sodipodi:namedview
     id="base"
     pagecolor="#ffffff"
     bordercolor="#666666"
     borderopacity="1.0"
     inkscape:pageopacity="0.0"
     inkscape:pageshadow="2"
     inkscape:zoom="1.4"
     inkscape:cx="58.574209"
     inkscape:cy="116.78337"
     inkscape:document-units="px"
     inkscape:current-layer="layer1"
     showgrid="false"
     inkscape:window-width="1366"
     inkscape:window-height="719"
     inkscape:window-x="0"
     inkscape:window-y="29"
     inkscape:window-maximized="1" />
  <metadata
     id="metadata4452">
    <rdf:RDF>
      <cc:Work
         rdf:about="">
        <dc:format>image/svg+xml</dc:format>
        <dc:type
           rdf:resource="http://purl.org/dc/dcmitype/StillImage" />
        <dc:title></dc:title>
      </cc:Work>
    </rdf:RDF>
  </metadata>
  <g
     inkscape:label="Layer 1"
     inkscape:groupmode="layer"
     id="layer1"
     transform="translate(0,-902.36218)">
    <g
       style="overflow:visible"
       id="g3376"
       inkscape:export-filename="/home/juan/bin/pomodoro/media/pomodoro_play.png"
       inkscape:export-xdpi="39.759998"
       inkscape:export-ydpi="39.759998"
       transform="translate(-28.005864,874.35726)">
      <rect
         inkscape:export-ydpi="39.758415"
         inkscape:export-xdpi="39.758415"
         inkscape:export-filename="/home/juan/images/pomodoro_1.png"
         y="125.47834"
         x="55.307186"
         height="6.8796172"
         width="1.8345646"
         id="rect3038"
         style="fill:#ffffff;stroke:#ffffff;stroke-width:1" />
      <g
         transform="translate(-7.8561624,-50.223846)"
         inkscape:export-ydpi="39.758415"
         inkscape:export-xdpi="39.758415"
         inkscape:export-filename="/home/juan/images/pomodoro_1.png"
         id="g3238">
        <path
           d="m 95.113,99.311 c -2.423,-0.19 -5.013,-0.024 -7.864,0.499 -2.898,0.523 -6.415,1.568 -9.171,2.59 -2.828,0.974 -4.585,1.64 -7.461,3.184 -2.993,1.378 -6.391,2.376 -9.931,5.56 -3.564,3.279 -8.245,8.791 -11.191,13.614 -2.946,4.728 -5.25,8.292 -6.367,14.636 -1.188,6.344 -1.117,16.798 -0.523,23.118 0.57,6.25 2.329,10.146 3.896,14.258 1.497,4.062 2.091,5.892 5.084,10.074 2.922,4.182 8.292,10.643 12.355,14.705 3.968,3.897 6.558,6.393 11.619,9.028 5.061,2.638 12.925,5.228 18.556,6.679 5.512,1.305 9.195,1.471 14.541,1.592 5.298,0.119 12.379,-0.049 17.296,-0.762 4.918,-0.736 8.316,-2.115 12.023,-3.586 3.588,-1.547 6.152,-2.781 9.717,-5.349 3.541,-2.638 8.078,-6.651 11.43,-10.121 3.23,-3.492 5.725,-6.843 8.125,-10.69 2.354,-3.945 4.42,-8.648 6.012,-12.545 1.474,-3.945 2.043,-6.867 3.089,-10.599 1.069,-3.824 2.471,-7.627 3.018,-11.76 0.429,-4.134 0.31,-8.577 -0.262,-12.783 -0.688,-4.276 -1.806,-8.482 -3.351,-12.616 -1.567,-4.229 -3.516,-8.814 -5.75,-12.094 -2.28,-3.184 -5.393,-5.369 -7.696,-7.199 -2.328,-1.996 -4.302,-3.018 -6.179,-4.253 -1.973,-1.235 -2.78,-1.996 -5.348,-3.017 -2.589,-1.165 -7.222,-2.4 -9.955,-3.255 -2.803,-0.784 -4.156,-1.283 -6.438,-1.591 -2.305,-0.404 -4.729,-0.713 -7.176,-0.666 -2.541,0.024 -5.321,0.333 -7.696,0.832 -2.376,0.404 -4.491,1.021 -6.439,1.758 l 0,0 -5.512,1.854 0,0 c -0.903,-0.238 -1.782,-0.404 -2.994,-0.594 -1.14,-0.166 -2.423,-0.451 -3.944,-0.499 -1.592,-0.073 -3.397,-0.073 -5.513,-0.002 l 0,0 0,0 z"
           id="path182"
           style="fill:#aa0000"
           inkscape:connector-curvature="0" />
        <path
           d="m 82.069,93.323 c -0.855,0.38 -1.52,0.784 -1.996,1.474 -0.523,0.57 -0.76,1.093 -0.974,2.304 -0.285,1.141 -0.546,3.873 -0.499,5.084 0.024,1.188 0.047,1.378 0.713,2.305 0.665,0.951 1.782,1.948 3.065,3.089 1.212,1.093 2.519,2.067 4.11,3.208 l 0,0 c 0.071,0.784 0.262,1.616 0.665,2.4 0.356,0.784 1.022,1.544 1.64,2.281 0.594,0.689 1.022,1.307 1.924,1.854 0.784,0.499 2.067,0.902 3.113,1.116 0.974,0.095 1.971,-0.143 3.254,-0.355 1.354,-0.262 2.804,-0.618 4.633,-1.069 l 0,0 c 0.119,0.214 0.356,0.38 0.808,0.594 0.356,0.143 0.998,0.333 1.829,0.476 0.832,0.047 2.448,0.166 3.375,0.095 0.832,-0.095 1.307,-0.285 2.066,-0.57 0.761,-0.285 1.663,-0.689 2.614,-1.116 l 0,0 c 1.282,0.594 2.162,1.211 2.897,1.948 0.643,0.689 0.952,1.497 1.213,2.329 0.262,0.784 0.38,1.212 0.356,2.305 -0.096,1.069 -0.285,2.305 -0.666,3.968 l 0,0 c 0.594,-0.095 1.308,-0.404 2.14,-0.927 0.782,-0.594 2.112,-1.14 2.707,-2.186 0.522,-1.045 0.762,-2.851 0.618,-3.873 -0.215,-1.117 -0.735,-1.734 -1.475,-2.495 -0.76,-0.736 -1.59,-1.521 -2.756,-2.091 l 0,0 c 2.092,0.618 4.088,1.165 5.893,1.639 1.758,0.476 2.994,1.093 4.896,1.117 1.878,-0.047 4.563,-0.522 6.319,-1.425 1.711,-0.974 2.875,-2.732 3.755,-4.182 0.831,-1.521 1.094,-3.279 1.235,-4.728 0.023,-1.497 -0.5,-2.898 -0.832,-4.11 -0.381,-1.235 -0.854,-2.376 -1.426,-3.326 l 0,0 c -0.023,1.259 -0.143,2.471 -0.451,3.92 -0.332,1.401 -0.854,3.065 -1.474,4.442 -0.688,1.354 -1.64,2.471 -2.589,3.446 -1.023,0.879 -2.044,1.544 -3.255,1.9 -1.308,0.261 -2.687,0.523 -4.134,0.047 -1.403,-0.475 -2.83,-1.378 -4.277,-2.804 l 0,0 c 0.76,-2.423 1.426,-4.562 1.995,-6.676 0.546,-2.163 1.188,-4.229 1.378,-5.845 0.143,-1.616 0,-2.376 -0.617,-3.826 -0.713,-1.544 -1.807,-3.254 -3.373,-5.227 l 0,0 c 0.617,1.14 0.926,2.542 0.83,4.205 -0.096,1.616 -0.783,3.588 -1.426,5.655 -0.783,1.996 -1.947,4.705 -2.756,6.582 -0.736,1.853 -1.449,3.326 -1.877,4.514 l 0,0 c -0.355,-0.712 -0.57,-1.734 -0.832,-3.16 -0.285,-1.497 -0.498,-3.611 -0.642,-5.441 -0.143,-1.9 -0.262,-3.635 -0.262,-5.583 -0.047,-2.043 0.022,-4.562 0.119,-6.177 0.096,-1.616 0.143,-2.828 0.332,-3.541 l 0,0 c -1.781,0.428 -3.207,0.832 -4.467,1.307 -1.259,0.452 -2.233,0.974 -3.017,1.473 -0.832,0.476 -1.473,0.95 -1.924,1.426 l 0,0 c 0.428,0.523 0.784,1.378 1.069,2.661 0.237,1.236 0.546,3.208 0.665,4.823 0.119,1.497 0.19,2.828 -0.071,4.633 -0.38,1.83 -0.974,3.92 -1.972,6.367 l 0,0 c -1.735,-2.09 -2.946,-4.181 -3.92,-6.367 -0.975,-2.257 -1.45,-4.895 -1.687,-6.724 -0.238,-1.806 -0.214,-2.875 0.167,-4.229 0.332,-1.426 1.021,-2.898 1.972,-4.324 l 0,0 c -1.117,0.452 -2.02,1.069 -2.899,1.948 -0.95,0.855 -1.71,1.806 -2.28,3.042 -0.547,1.14 -1.022,2.352 -0.88,4.015 0.143,1.568 1.022,4.086 1.64,5.821 0.57,1.734 0.807,3.113 1.615,4.681 0.737,1.592 1.592,3.064 2.661,4.68 l 0,0 c -1.259,-0.023 -2.685,-0.213 -4.182,-0.665 -1.616,-0.522 -3.445,-1.45 -4.942,-2.043 -1.449,-0.594 -2.732,-1.117 -3.754,-1.568 l 0,0 c 0.047,-1.046 0.285,-1.877 0.712,-2.756 0.428,-0.903 0.975,-1.592 1.734,-2.329 l 0,0 c -1.069,0.261 -1.853,0.666 -2.447,1.117 -0.618,0.428 -0.855,1.093 -1.069,1.615 -0.237,0.499 -0.261,0.927 -0.167,1.283 l 0,0 c -1.473,-1.069 -2.494,-2.091 -3.35,-3.16 -0.832,-1.093 -1.307,-2.115 -1.521,-3.255 -0.214,-1.259 -0.119,-2.661 0,-3.659 0.024,-0.951 0.214,-1.545 0.285,-2.044 0.033,-0.572 0.103,-1.047 0.126,-1.333 l 0,0 z"
           id="path181"
           style="fill:#00aa00"
           inkscape:connector-curvature="0" />
        <path
           d="m 78.578,102.447 c -3.611,0.523 -7.151,1.639 -10.811,3.635 -3.706,1.877 -7.318,3.754 -11.119,8.007 -3.873,4.324 -8.958,11.5 -11.5,17.582 -2.59,5.893 -3.255,11.666 -3.54,18.152 -0.285,6.487 -0.119,13.78 1.972,20.694 2.02,6.843 5.132,13.377 10.264,20.148 5.132,6.629 11.856,15.041 20.362,19.838 8.53,4.824 19.626,7.961 30.46,8.862 10.81,0.783 24.044,-0.142 33.927,-4.157 9.838,-4.135 18.533,-13.187 24.711,-20.195 5.964,-7.008 8.695,-13.709 11.498,-21.74 2.828,-8.125 5.728,-17.438 5.395,-26.467 -0.451,-9.1 -3.824,-20.433 -7.65,-27.49 -3.824,-7.056 -9.883,-11.167 -14.967,-14.612 -5.181,-3.517 -11.05,-4.871 -15.492,-6.272 -4.467,-1.45 -7.912,-1.901 -10.787,-2.257 -2.852,-0.404 -4.941,-0.404 -6.271,0 l 0,0 c 2.874,-0.19 6.154,0.071 9.932,0.879 3.778,0.808 8.838,2.423 12.521,3.825 3.589,1.283 5.845,1.972 9.053,3.992 3.186,1.996 7.033,4.609 9.907,7.84 2.804,3.184 5.062,6.867 6.963,10.954 1.877,3.968 3.207,8.292 4.181,12.878 0.95,4.585 1.664,9.337 1.401,14.445 -0.354,5.014 -2.257,11.12 -3.492,15.848 -1.307,4.68 -1.972,7.697 -4.182,12.355 -2.306,4.68 -5.134,10.381 -9.22,15.467 -4.229,5.014 -10.217,10.834 -15.301,14.443 -5.014,3.541 -9.455,5.229 -14.803,6.797 -5.488,1.449 -10.951,2.234 -17.582,2.258 -6.723,0.047 -15.229,-0.617 -21.93,-2.091 -6.748,-1.64 -12.545,-4.111 -17.749,-7.13 -5.132,-3.111 -9.028,-6.676 -12.877,-10.785 -3.992,-4.135 -7.603,-8.838 -10.478,-13.566 -2.898,-4.729 -5.203,-9.646 -6.628,-14.469 -1.402,-4.801 -1.806,-9.338 -1.949,-14.257 -0.237,-5.108 0.024,-10.976 0.784,-15.491 0.737,-4.491 1.592,-6.771 3.849,-10.953 2.257,-4.253 6.392,-10.359 9.552,-13.923 3.112,-3.564 6.248,-5.298 9.052,-7.128 2.803,-1.829 5.298,-2.898 7.484,-3.849 2.066,-0.973 3.753,-1.663 5.06,-2.067 l 0,0 0,0 z"
           id="path183"
           style="stroke:#000000;stroke-width:0.036;stroke-miterlimit:10"
           inkscape:connector-curvature="0" />
        <path
           d="m 82.545,100.856 c 1.164,-0.855 2.78,-1.354 5.037,-1.592 2.234,-0.237 4.942,-0.213 8.221,0.167 l 0,0 c -3.778,0.38 -6.771,0.689 -8.98,0.927 -2.211,0.236 -3.636,0.402 -4.278,0.498 l 0,0 z"
           id="path185"
           style="stroke:#000000;stroke-width:0.036;stroke-miterlimit:10"
           inkscape:connector-curvature="0" />
        <path
           d="m 99.343,99.169 c 1.473,-0.048 2.732,-0.048 3.778,0.095 1.045,0.143 1.853,0.333 2.519,0.666 l 0,0 c -1.758,0.023 -3.16,0.023 -4.206,-0.095 -1.021,-0.167 -1.806,-0.358 -2.091,-0.666 l 0,0 z"
           id="path187"
           style="stroke:#000000;stroke-width:0.036;stroke-miterlimit:10"
           inkscape:connector-curvature="0" />
        <path
           d="m 106.304,113.282 c -2.804,-3.825 -4.847,-7.294 -6.225,-10.407 -1.425,-3.184 -2.091,-5.869 -1.996,-8.316 0.096,-2.471 0.927,-4.538 2.59,-6.296 l 0,0 c -1.069,2.21 -1.568,4.301 -1.687,6.629 -0.143,2.233 0.071,4.372 1.093,6.961 1.021,2.614 3.659,6.272 4.799,8.316 1.046,1.877 1.522,2.946 1.426,3.113 l 0,0 z"
           id="path189"
           style="stroke:#000000;stroke-width:0.036;stroke-miterlimit:10"
           inkscape:connector-curvature="0" />
        <path
           d="m 100.603,112.094 c -1.901,-2.495 -3.303,-5.061 -4.301,-7.888 -1.021,-2.828 -2.186,-6.462 -1.663,-8.981 0.451,-2.637 2.02,-4.704 4.609,-6.462 l 0,0 c -2.281,1.948 -3.659,4.158 -4.039,6.629 -0.427,2.495 0.665,5.274 1.616,8.149 0.903,2.78 2.161,5.63 3.778,8.553 l 0,0 z"
           id="path191"
           style="stroke:#000000;stroke-width:0.036;stroke-miterlimit:10"
           inkscape:connector-curvature="0" />
        <path
           d="m 99.343,111.927 c -2.97,-1.069 -5.323,-1.877 -7.152,-2.519 -1.9,-0.665 -3.065,-1.141 -3.849,-1.426 l 0,0 c 1.615,0.903 3.064,1.664 4.443,2.281 1.331,0.594 2.685,1.212 3.778,1.497 1.093,0.286 2.02,0.31 2.78,0.167 l 0,0 z"
           id="path193"
           style="stroke:#000000;stroke-width:0.036;stroke-miterlimit:10"
           inkscape:connector-curvature="0" />
        <path
           d="m 86.063,106.487 c -1.307,-1.14 -2.281,-2.376 -3.018,-3.611 -0.784,-1.26 -1.331,-2.305 -1.354,-3.968 0,-1.758 0.428,-3.825 1.283,-6.296 l 0,0 c -1.45,0.333 -2.542,1.117 -3.279,2.542 -0.76,1.402 -1.188,3.944 -1.188,5.703 -0.047,1.616 -0.237,2.946 1.093,4.538 1.331,1.688 3.564,3.326 6.795,5.274 l 0,0 c -1.782,-1.235 -3.231,-2.4 -4.443,-3.683 -1.259,-1.259 -2.4,-2.21 -2.78,-3.873 -0.404,-1.782 0.047,-4.918 0.522,-6.462 0.475,-1.568 1.117,-2.519 2.186,-2.851 l 0,0 c -0.546,1.165 -0.736,2.447 -0.76,3.849 -0.047,1.425 -0.071,2.97 0.76,4.538 0.855,1.496 2.162,2.898 4.183,4.3 l 0,0 z"
           id="path195"
           style="stroke:#000000;stroke-width:0.036;stroke-miterlimit:10"
           inkscape:connector-curvature="0" />
        <path
           d="m 88.747,111.524 c 0.95,0.546 2.209,1.164 3.873,1.758 1.663,0.618 3.564,1.235 5.964,1.853 l 0,0 c -1.069,0.048 -2.163,-0.071 -3.374,-0.356 -1.331,-0.38 -2.828,-0.855 -3.944,-1.425 -1.094,-0.595 -1.902,-1.117 -2.519,-1.83 l 0,0 z"
           id="path197"
           style="stroke:#000000;stroke-width:0.036;stroke-miterlimit:10"
           inkscape:connector-curvature="0" />
        <path
           d="m 98.82,116.228 c -0.975,0.309 -1.973,0.476 -3.089,0.404 -1.212,-0.048 -2.542,-0.119 -3.707,-0.761 -1.188,-0.688 -2.471,-2.02 -3.112,-3.35 -0.713,-1.425 -1.14,-3.23 -0.903,-4.871 0.238,-1.663 0.927,-3.278 2.257,-4.942 l 0,0 c -1.069,0.808 -1.711,1.782 -2.186,3.018 -0.522,1.211 -0.808,2.637 -0.499,4.276 0.356,1.568 1.188,4.182 2.59,5.37 1.33,1.093 3.896,1.473 5.393,1.592 1.475,0.167 2.473,-0.142 3.256,-0.736 l 0,0 z"
           id="path199"
           style="stroke:#000000;stroke-width:0.036;stroke-miterlimit:10"
           inkscape:connector-curvature="0" />
        <path
           d="m 100.839,117.226 c -1.378,0.452 -2.637,0.784 -3.777,1.093 -1.212,0.309 -2.091,0.57 -3.184,0.499 -1.116,-0.095 -2.233,-0.356 -3.445,-1.331 -1.26,-1.14 -3.065,-3.397 -3.778,-5.132 -0.689,-1.758 -0.404,-3.683 -0.333,-5.037 0.047,-1.283 0,-2.233 0.594,-2.851 0.522,-0.737 1.354,-1.211 2.59,-1.425 l 0,0 c -0.927,0.403 -1.568,1.021 -2.02,1.592 -0.475,0.546 -0.57,0.879 -0.665,2.02 -0.143,1.14 -0.262,3.564 -0.095,4.704 0.142,1.021 0.214,0.927 0.855,1.83 0.523,0.927 1.782,2.661 2.685,3.54 0.879,0.784 1.711,1.045 2.78,1.331 1.046,0.19 2.186,0.19 3.517,0.095 1.354,-0.144 2.662,-0.453 4.276,-0.928 l 0,0 z"
           id="path201"
           style="stroke:#000000;stroke-width:0.036;stroke-miterlimit:10"
           inkscape:connector-curvature="0" />
        <path
           d="m 102.1,117.487 c 1.331,0.618 2.613,0.95 4.11,0.903 1.474,-0.047 2.898,-0.38 4.54,-1.093 l 0,0 c -1.854,0.522 -3.447,0.808 -4.872,0.855 -1.451,0.048 -2.71,-0.236 -3.778,-0.665 l 0,0 z"
           id="path203"
           style="stroke:#000000;stroke-width:0.036;stroke-miterlimit:10"
           inkscape:connector-curvature="0" />
        <path
           d="m 111.936,116.466 c 2.448,0.665 4.04,1.877 4.774,3.54 0.736,1.687 0.57,3.754 -0.401,6.462 l 0,0 c 0.475,-2.376 0.354,-4.396 -0.357,-6.059 -0.738,-1.686 -2.044,-2.969 -4.016,-3.943 l 0,0 z"
           id="path205"
           style="stroke:#000000;stroke-width:0.036;stroke-miterlimit:10"
           inkscape:connector-curvature="0" />
        <path
           d="m 117.212,115.374 c 2.399,1.117 3.942,2.376 4.631,3.777 0.643,1.45 0.5,3.35 -0.428,4.705 -0.925,1.283 -2.517,2.353 -4.869,3.112 l 0,0 c 1.877,-0.855 3.16,-1.948 3.944,-3.184 0.714,-1.331 1.093,-2.97 0.593,-4.372 -0.593,-1.402 -1.853,-2.78 -3.871,-4.038 l 0,0 z"
           id="path207"
           style="stroke:#000000;stroke-width:0.036;stroke-miterlimit:10"
           inkscape:connector-curvature="0" />
        <path
           d="m 121.843,116.632 c 3.943,2.043 7.271,2.661 10.24,1.853 2.875,-0.832 6.344,-3.778 7.293,-6.724 0.928,-3.041 0.312,-6.558 -1.758,-11 l 0,0 c 1.189,2.851 1.664,5.488 1.426,7.817 -0.262,2.353 -1.426,4.633 -2.756,6.201 -1.354,1.497 -2.969,2.424 -5.298,2.78 -2.493,0.284 -5.393,-0.024 -9.147,-0.927 l 0,0 z"
           id="path209"
           style="stroke:#000000;stroke-width:0.036;stroke-miterlimit:10"
           inkscape:connector-curvature="0" />
        <path
           d="m 122.604,112.854 c 2.59,1.425 4.848,1.758 6.962,1.093 2.066,-0.784 4.134,-3.16 5.464,-5.203 1.261,-2.067 2.021,-4.277 2.188,-6.891 l 0,0 c -0.145,1.782 -0.451,3.493 -0.928,5.037 -0.477,1.592 -1.094,3.017 -1.949,4.277 -0.926,1.211 -2.186,2.139 -3.516,2.78 -1.449,0.594 -3.23,0.879 -4.609,0.76 -1.355,-0.19 -2.59,-0.807 -3.612,-1.853 l 0,0 0,0 z"
           id="path211"
           style="stroke:#000000;stroke-width:0.036;stroke-miterlimit:10"
           inkscape:connector-curvature="0" />
        <path
           d="m 121.343,110.502 c 1.236,-2.328 2.068,-4.585 2.687,-6.961 0.522,-2.4 1.593,-4.538 0.736,-7.151 -0.902,-2.661 -2.827,-5.536 -5.867,-8.72 l 0,0 c 1.543,2.376 2.306,4.895 2.09,7.555 -0.237,2.709 -2.328,5.655 -3.254,8.387 -1,2.637 -1.808,5.013 -2.521,7.318 l 0,0 c 0.642,-1.141 1.33,-2.566 2.162,-4.372 0.855,-1.877 1.996,-4.515 2.779,-6.368 0.689,-1.829 1.402,-3.017 1.594,-4.467 0.142,-1.521 -0.024,-2.97 -0.596,-4.443 l 0,0 c 1.33,1.497 2.114,3.065 2.613,4.705 0.428,1.663 0.214,3.397 0,5.203 -0.285,1.758 -1.213,4.063 -1.592,5.631 -0.403,1.568 -0.712,2.732 -0.831,3.683 l 0,0 z"
           id="path213"
           style="stroke:#000000;stroke-width:0.036;stroke-miterlimit:10"
           inkscape:connector-curvature="0" />
        <path
           d="m 114.691,109.575 c -0.831,-3.873 -1.308,-7.579 -1.426,-11.404 -0.095,-3.849 0.048,-7.532 0.688,-11.333 l 0,0 c -0.213,3.445 -0.332,6.985 -0.166,10.811 0.145,3.777 0.384,7.721 0.904,11.926 l 0,0 z"
           id="path215"
           style="stroke:#000000;stroke-width:0.036;stroke-miterlimit:10"
           inkscape:connector-curvature="0" />
        <path
           d="m 113.693,87.004 c -1.233,-0.238 -2.494,-0.071 -3.872,0.499 -1.378,0.523 -2.828,1.449 -4.348,2.78 l 0,0 c 2.423,-0.855 4.324,-1.592 5.703,-2.114 1.329,-0.571 2.233,-0.928 2.517,-1.165 l 0,0 z"
           id="path217"
           style="stroke:#000000;stroke-width:0.036;stroke-miterlimit:10"
           inkscape:connector-curvature="0" />
        <path
           d="m 104.95,91.875 c 0.642,2.353 1.069,4.895 1.022,7.722 0.023,2.827 -0.428,5.845 -1.093,9.147 l 0,0 c 0.737,-1.544 1.331,-3.303 1.592,-5.37 0.237,-2.162 0.333,-5.013 0.095,-6.985 -0.309,-1.948 -0.759,-3.422 -1.616,-4.514 l 0,0 z"
           id="path219"
           style="stroke:#000000;stroke-width:0.036;stroke-miterlimit:10"
           inkscape:connector-curvature="0" />
        <path
           d="m 113.956,98.076 c 1.33,-0.618 2.59,-0.951 3.778,-1.259 1.211,-0.285 2.351,-0.428 3.42,-0.428 l 0,0 c -1.188,0.499 -2.328,0.927 -3.517,1.188 -1.235,0.261 -2.399,0.428 -3.681,0.499 l 0,0 z"
           id="path221"
           style="stroke:#000000;stroke-width:0.036;stroke-miterlimit:10"
           inkscape:connector-curvature="0" />
        <path
           d="m 61.851,117.75 c 4.823,-1.688 8.363,-3.16 10.621,-4.515 2.329,-1.425 3.469,-2.59 2.97,-3.493 -0.618,-0.903 -2.827,-1.449 -6.628,-1.734 l 0,0 c 2.043,0.333 3.492,0.737 4.348,1.212 0.808,0.451 1.141,1.117 0.713,1.734 -0.428,0.571 -1.188,0.666 -3.303,1.925 -2.281,1.236 -8.458,4.705 -9.931,5.56 -1.452,0.83 -1.048,0.569 1.21,-0.689 l 0,0 z"
           id="path223"
           style="stroke:#000000;stroke-width:0.036;stroke-miterlimit:10"
           inkscape:connector-curvature="0" />
        <path
           d="m 63.253,118.794 c 3.896,-1.972 7.199,-3.017 9.907,-3.136 2.661,-0.167 5.061,1.164 6.273,2.447 1.164,1.235 2.186,1.568 0.878,5.037 -1.378,3.469 -4.252,8.506 -8.886,15.491 l 0,0 c 2.875,-4.728 4.942,-8.529 6.106,-11.666 1.093,-3.112 1.283,-5.369 0.856,-6.961 -0.476,-1.639 -1.758,-2.589 -3.303,-2.946 -1.615,-0.476 -3.92,0 -5.916,0.333 -1.972,0.308 -3.943,0.712 -5.915,1.401 l 0,0 z"
           id="path225"
           style="stroke:#000000;stroke-width:0.036;stroke-miterlimit:10"
           inkscape:connector-curvature="0" />
        <path
           d="m 82.925,124.188 c 1.758,-1.188 3.254,-1.854 4.68,-1.901 1.378,-0.095 2.78,0.665 3.659,1.378 0.784,0.688 1.188,1.473 1.211,2.613 l 0,0 c 0.832,-2.661 1.996,-4.252 3.493,-4.871 1.497,-0.57 3.231,-0.261 5.393,1.212 l 0,0 c -1.971,-1.045 -3.54,-1.307 -4.704,-1.045 -1.212,0.309 -1.687,1.235 -2.423,2.78 -0.784,1.449 -1.449,3.517 -2.091,6.106 l 0,0 c -0.238,-2.756 -0.76,-4.729 -1.568,-5.917 -0.855,-1.141 -2.043,-1.307 -3.302,-1.235 -1.283,-0.119 -2.731,0.262 -4.348,0.88 l 0,0 z"
           id="path227"
           style="stroke:#000000;stroke-width:0.036;stroke-miterlimit:10"
           inkscape:connector-curvature="0" />
        <path
           d="m 143.654,116.18 c 0.356,-0.119 8.72,0.119 12.354,1.734 3.589,1.616 8.531,7.46 9.054,8.007 0.401,0.452 -4.371,-3.73 -6.272,-5.037 -1.925,-1.331 -2.328,-2.043 -4.871,-2.78 -2.565,-0.831 -10.597,-1.9 -10.265,-1.924 l 0,0 z"
           id="path229"
           style="stroke:#000000;stroke-width:0.036;stroke-miterlimit:10"
           inkscape:connector-curvature="0" />
      </g>
      <path
         transform="matrix(1.2444444,0,0,0.90377496,-7.647711,29.861109)"
         inkscape:transform-center-x="-12.107505"
         d="m 124.53437,85.357323 -29.187746,16.851547 -29.187742,16.85156 4e-6,-33.703108 -4e-6,-33.703103 29.187743,16.851556 z"
         inkscape:randomized="0"
         inkscape:rounded="-4.1286419e-16"
         inkscape:flatsided="false"
         sodipodi:arg2="1.0471976"
         sodipodi:arg1="0"
         sodipodi:r2="19.458492"
         sodipodi:r1="38.916992"
         sodipodi:cy="85.357323"
         sodipodi:cx="85.617378"
         sodipodi:sides="3"
         id="path3252"
         style="fill:#ffffff;stroke:none"
         sodipodi:type="star" />
    </g>
  </g>
</svg>
